<?xml version="1.0" encoding="utf-8"?>
<!DOCTYPE svg PUBLIC "-//W3C//DTD SVG 20010904//EN" "http://www.w3.org/TR/2001/REC-SVG-20010904/DTD/svg10.dtd">
<svg version="1.0" xmlns="http://www.w3.org/2000/svg" width="50pt" height="50pt" viewBox="0 0 50 50" style="" preserveAspectRatio="xMidYMid meet">
<g fill="#000000FF" stroke="#000000FF">
<path d="M 19.812 10.569 C 12.437 19.751 9.659 25.370 9.635 31.157 C 9.610 37.073 12.966 42.281 18.566 45.015 C 23.717 47.530 26.309 47.513 31.647 44.929 C 40.780 40.508 42.650 31.408 36.961 19.065 C 33.854 12.325 33.599 12.053 31.867 13.620 C 30.142 15.181 29.945 15.035 28.177 10.885 C 27.150 8.473 26.101 5.856 25.845 5.069 C 25.544 4.143 23.411 6.087 19.812 10.569 M 27.911 17.750 C 30.899 23.791 31.339 24.264 32.093 22.250 C 33.235 19.200 33.721 19.396 35.487 23.622 C 37.419 28.247 37.414 33.298 35.474 37.050 C 33.703 40.476 32.000 40.909 32.000 37.933 C 32.000 36.797 30.932 34.434 29.628 32.683 C 28.323 30.932 26.833 28.181 26.317 26.568 L 25.379 23.637 22.615 27.261 C 21.094 29.254 19.040 33.021 18.049 35.631 L 16.247 40.378 14.623 37.239 C 12.323 32.790 12.608 28.036 15.501 22.594 C 18.040 17.819 23.059 11.000 24.035 11.000 C 24.330 11.000 26.074 14.038 27.911 17.750 M 26.812 33.960 C 30.610 39.097 28.770 43.912 23.513 42.593 C 21.543 42.098 21.000 41.328 21.000 39.028 C 21.000 35.974 22.842 31.000 23.972 31.000 C 24.331 31.000 25.609 32.332 26.812 33.960 "/></g>
</svg>
